<?xml version="1.0" encoding="utf-8"?>
<!-- Generator: Adobe Illustrator 22.0.0, SVG Export Plug-In . SVG Version: 6.00 Build 0)  -->
<svg version="1.1" id="Layer_1" xmlns="http://www.w3.org/2000/svg" xmlns:xlink="http://www.w3.org/1999/xlink" x="0px" y="0px"
	 viewBox="0 0 325.2 230.8" style="enable-background:new 0 0 325.2 230.8;" xml:space="preserve">
<style type="text/css">
	.st0{fill:#FFFFFF;}
	.st1{fill:#84BD41;}
	.st2{fill:#2CBCEA;}
	.st3{fill:#D7A97E;}
	.st4{fill:#814E24;}
	.st5{fill:#231F20;}
	.st6{enable-background:new    ;}
</style>
<g>
	<path class="st0" d="M34.6,149.2c-5-2.5-8.6-5.3-10.6-8.2c-1.7-2.5-2.6-5.3-2.6-8.2c0-0.5,0-1,0-1.5c0.3-3.3,2-4.9,5.2-4.9
		c2.5,0,3.8,2.9,3.8,8.6c0,1.3-0.1,2.7-0.2,4.3l-0.1,0.9l15.1-0.9v-0.7c0.1-1.3,0.1-2.6,0.1-3.8c0-15.2-6.1-23-18.2-23h-0.4
		c-13.3,0.2-20.2,6.5-20.4,18.5c0,0.4-0.1,0.7-0.1,1.1c0,11.4,4.5,19.7,13.2,24.7c8.5,4.9,12.9,9.8,13.1,14.7v0.5
		c0,4.5-2,6.7-6.4,6.8h-0.2c-3.4,0-5.1-3.7-5.1-11.1c0-1.7,0.1-3.6,0.3-5.8l0.1-0.9l-17,1.1v0.7c-0.1,1.4-0.1,2.7-0.1,3.9
		c0,10.5,1.9,17.8,5.6,21.9c3.9,4.2,8.8,6.4,14.5,6.4c0.4,0,0.9,0,1.3-0.1c6.3-0.3,11.4-2.3,15.2-5.8c3.7-3.6,6.1-8.1,6.9-13.5
		c0.2-1.5,0.3-2.9,0.3-4.4c0-3.7-0.8-7.3-2.3-10.6C43.6,155.5,39.9,151.8,34.6,149.2z"/>
	<path class="st0" d="M51.4,116.9c0.8,22.2,1.2,46.3,1.2,71.7v0.8l14.5-1.3v-0.7c0-24.1,0.2-48.3,0.6-71.7v-0.8l-16.4,1.4
		L51.4,116.9z"/>
	<path class="st0" d="M134.9,152.5c0-11.4,0.2-22.9,0.6-34.1v-0.8l-25.1-0.3l-8.4,46.9l-11.3-50.3l-0.1-0.6l-20.2,0.5v0.8
		c0.4,13.6,0.6,27.6,0.6,41.5c0,11.2-0.1,22.6-0.4,34v0.8l14.2-1l0.2-43.6l9.1,43.1l17.4-1.2l7.2-38.9c0.2,16.6,0.4,31.1,0.4,43.1
		v0.8l16.7-1.1v-0.7C135.2,178.3,134.9,165.3,134.9,152.5z"/>
	<path class="st0" d="M163.8,113.9c-17.1,0-25.8,12.4-25.8,36.9c0,26.3,8.1,39.6,24.2,39.6s24.2-12.9,24.2-38.3
		C186.5,126.8,178.9,113.9,163.8,113.9z M162.5,175c-5.6,0-8.4-6.3-8.4-18.9c0-0.8,0-1.7,0.1-2.6l0,0c0.4-14.3,3.5-21.5,9-21.5
		s8.3,7.2,8.3,21.5C171.5,167.8,168.5,175,162.5,175z"/>
	<path class="st0" d="M234.6,113.6l-17.7,0.2v0.8c0.6,12.5,0.9,24.8,1.1,36.8l-12.7-35.5l-16.6,0.8v0.7c0.6,12.1,0.8,24.8,0.8,37.7
		c0,11.2-0.2,22.8-0.6,34.6v0.8l15.4-1v-0.7c-0.3-11.9-0.7-24.7-1.1-38.4l13.6,38l15.4-0.2v-0.8c0-2.9-0.1-5.8-0.1-8.7
		c0-21.6,0.8-43.2,2.4-64.4L234.6,113.6z"/>
	<path class="st0" d="M40.2,30c-6.2-5.2-17.1-6.9-32.3-5l-0.7,0.1v0.7c0.1,13.1,0.1,26,0.1,38.2s0,24.4-0.1,36.1v0.7l0.6,0.1
		c3.9,0.6,7.7,0.9,11.2,0.9c4.7,0,9.1-0.6,13-1.6c6.9-1.9,11.8-5.8,14.4-11.6c2.3-5.1,3.5-13.8,3.5-25.7v-3.8
		C49.6,45.1,46.4,35.3,40.2,30z M34.8,63.4v0.2c0,9.7-1.4,15.9-4,18.6c-2.5,2.6-5.9,3.5-9.9,2.7c-0.1-3.6-0.1-7.4-0.1-11.3
		c0-10.4,0.3-21.3,0.9-32.5c3.8-0.7,6.7,0.3,9.2,3.1C33.4,47.2,34.7,53.7,34.8,63.4z"/>
	<path class="st0" d="M75.8,101.1c16.1,0,24.2-12.9,24.2-38.3s-7.6-38.2-22.7-38.2c-17.1,0-25.8,12.4-25.8,36.9
		C51.6,87.7,59.7,101.1,75.8,101.1z M76.1,85.7c-5.6,0-8.4-6.3-8.4-18.9c0-0.8,0-1.7,0.1-2.6l0,0c0.3-14.2,3.4-21.4,8.9-21.4
		S85,50,85,64.3C85,78.5,82,85.7,76.1,85.7z"/>
	<path class="st0" d="M103.1,65.9c0,11.2-0.2,22.9-0.6,34.6v0.8l15.4-1v-0.7c-0.3-11.9-0.7-24.7-1.1-38.4l13.6,38l15.4-0.2v-0.8
		c0-2.9-0.1-5.8-0.1-8.7c0-21.6,0.8-43.2,2.4-64.4l0.1-0.8l-17.7,0.2v0.8c0.6,12.5,0.9,24.8,1.1,36.8l-12.7-35.5l-16.6,0.8v0.7
		C102.8,40.3,103.1,53,103.1,65.9z"/>
</g>
<rect x="186.5" y="88.1" class="st0" width="21.7" height="11.3"/>
<rect x="247.9" y="69.1" transform="matrix(0.5488 -0.8359 0.8359 0.5488 57.0647 247.4437)" class="st0" width="19.7" height="3.6"/>
<g>
	<path class="st0" d="M285,43.4c1.2,1.2,2.9,1.9,4.7,1.9c0.6,0,1.1-0.1,1.7-0.2c2-0.6,3.5-2.1,4-4.2c0.9-3.8-1-7-4.7-8
		c-5.2-1.3-9.4,2.9-10.4,5.7l-1.5,4.5h4.7C284,43.1,284.8,43.3,285,43.4z"/>
	<path class="st0" d="M286.9,50.8l-3.8,3l4,2.6c0.4,0.2,1,0.9,1,1.1c0.5,2.3,2.2,4.2,4.4,4.9c0.6,0.2,1.2,0.3,1.8,0.3
		c1.4,0,2.8-0.6,3.9-1.6c2.9-2.7,3-6.4,0.4-9.3C295.1,47.9,289.2,49.1,286.9,50.8z"/>
	<path class="st0" d="M281.5,62.5l-4.7,1l2.5,4.1c0.2,0.4,0.5,1.2,0.5,1.5c-0.6,2.3,0.1,4.7,1.7,6.3c1.1,1,2.5,1.6,3.9,1.6
		c0.6,0,1.2-0.1,1.8-0.3c3.8-1.2,5.6-4.4,4.5-8.1C290.1,63.5,284.3,61.9,281.5,62.5z"/>
	<path class="st0" d="M295.7,65.2l-4.5,1.6l3,3.7c0.3,0.4,0.7,1.1,0.7,1.4c-0.3,2.3,0.8,4.7,2.6,6c1,0.7,2.1,1.1,3.3,1.1
		c0.9,0,1.7-0.2,2.5-0.6c3.6-1.7,4.9-5.2,3.3-8.7C304.3,64.9,298.4,64.2,295.7,65.2z"/>
	<path class="st0" d="M301.4,52.1c0.5,2.3,2.2,4.2,4.4,4.9c0.6,0.2,1.2,0.3,1.7,0.3c1.4,0,2.8-0.6,3.9-1.6c2.9-2.7,3-6.4,0.4-9.3
		l0,0c-3.6-3.9-9.5-2.7-11.8-0.9l-3.7,2.9l4,2.6C300.7,51.3,301.3,51.9,301.4,52.1z"/>
	<path class="st0" d="M320.1,64.7c-2.6-4.7-8.6-4.9-11.2-3.7l-4.3,2l3.3,3.4c0.3,0.3,0.7,1,0.8,1.3c-0.1,2.3,1.1,4.6,3.1,5.8
		c0.9,0.5,1.9,0.8,2.9,0.8s2-0.3,2.9-0.8C321,71.6,322,68,320.1,64.7z"/>
	<path class="st0" d="M197.9,77.6c7.4,0,14.4-5.1,16.2-11.9l0.6-2.2l-5.3-1.5l-0.6,2.2c-1.2,4.5-6,7.9-11,7.9
		c-4.8,0-10-3.9-11.3-8.4l-0.6-2c3-0.2,5.3-2.7,5.3-5.7c0-3.2-2.6-5.7-5.7-5.7c-3.2,0-5.7,2.6-5.7,5.7c0,3.1,2.4,5.6,5.5,5.7
		l-4.7,1.3l0.6,2.2C183.3,72.2,190.6,77.6,197.9,77.6z"/>
	<path class="st0" d="M190.9,65.8h5.5v-2.3c0-0.8,0.7-1.5,1.5-1.5s1.5,0.7,1.5,1.5v2.3h5.5v-2.3c0-3.9-3.1-7-7-7s-7,3.1-7,7V65.8z"
		/>
	<path class="st0" d="M274,43.5l-3.5-3.8l-2.4,4.5c-0.6,1.1-2.6,3.8-4.6,4.4c-3.6,1-6.5,4.1-7.4,7.7c-0.5,2-0.2,4,0.7,5.8l-6,9.6
		c-0.3-0.2-0.5-0.3-0.8-0.5c-1.7-0.8-3.5-0.8-5.2,0c-2.4,1.2-3.9,3.8-4.9,6.3l-8.5,0.3l-0.4-3l-3.8,0.8c-4.7,0.9-8.1,2.8-10.4,4.7
		c-0.2-0.1-0.3-0.3-0.4-0.3l-0.6-0.5c4-3.1,7.2-7.3,9.1-12.3c3.2-1.3,5.3-4.4,5.3-7.8c0-1-0.2-2-0.5-2.9c3-1.5,5.2-3.5,6.6-6.2
		c1.9-3.7,2-8.2,0.1-12.6c-1.8-4.2-4.9-6.7-6.9-7.9c-0.2-0.8-0.4-1.5-0.7-2.2c-0.2-0.6-5.1-13.6-17.6-14.9c-0.1,0-5-0.7-9.4-0.1
		c-3.2-6.4-10.4-8.8-10.8-8.9l-3.9-1.4l1.7,6.3c-2.1-0.8-3.7-1-3.8-1.1l-4.2-0.6l2.7,5.6c-4,0.6-9,2.3-12.1,6.8c-0.7,1-3.6,5-3.8,11
		c-2,0.8-4.7,2.3-6.6,5c-2.5,3.5-3.1,7.9-2,13.2c0.9,4.1,3.5,7.1,7.3,8.7c-0.1,0.6-0.2,1.1-0.2,1.7c0,3.1,1.7,5.9,4.4,7.4
		c1.8,5,5,9.4,9.1,12.7l-1.1,0.8c-0.4,0.3-1.1,0.9-1.8,1.8c-2.8,0.4-8.1,2-13.1,7.3l-2.7,2.9l14.6,11.9l43.6,0.1l5.3-1.3l-0.7-2.2
		c0-0.2-1.4-4.5-2.5-7.9c3.3,0.9,7.2,1.9,7.3,1.9l5.3,1.4l-0.5-3.6l11.5,0.4c4.1,2.1,7.8,2.3,10.7,0.6c4.8-2.8,5.1-9.3,5.1-10.1
		v-1.4l-0.9-1.1c-0.2-0.2-0.3-0.4-0.5-0.5l7.8-12.5c2.8-0.3,5.3-1.8,6.7-3.2C280.7,57.3,276.7,46.5,274,43.5z M229.5,40.1
		c0.1,0.1,0.1,0.2,0.2,0.3c1,2.4,1.1,4.7,0.2,6.4c-0.7,1.3-1.9,2.4-3.7,3.2c-0.2-0.9-0.5-1.8-0.8-2.7
		C227.3,45.3,228.7,42.8,229.5,40.1z M169.6,50.7c-1.8-0.6-2.9-1.8-3.2-3.6l0,0c-0.7-3.2-0.4-5.7,0.8-7.4c0.5-0.7,1.1-1.3,1.8-1.7
		c0.7,1.9,1.9,3.6,3.4,5C171,45.5,170.1,48,169.6,50.7z M173.9,92.7l-1.6-1.3c0.9-0.6,1.7-1.1,2.5-1.4
		C174.4,90.8,174.1,91.8,173.9,92.7z M192,25.1l2.1-0.8l-1.6-4.2l0.5,0.1c0.1,0.2,0.3,0.3,0.4,0.4l4.1,5.1l-0.1-5.7l0.7,1.3l3.1-1.3
		c1.9-0.8,6.5-0.6,9.1-0.3c8.1,0.9,11.6,10.1,11.7,10.2c1,2.6,1.1,5.2,0.5,7.7c-1,4.1-4.5,7.1-8.5,7.4c-0.2,0-0.3,0-0.5,0
		c0.7-0.6,1.3-1.3,1.8-2.1c5.9-8.8-0.8-17.3-5.2-20.6l-1.8-1.4l-4.4,5.9l1.8,1.4c0.3,0.2,7,5.4,3.5,10.7c-0.4,0.6-1,1.1-1.7,1.4
		c-0.8,0.3-2.4,0.9-3.5,0.4c-0.9-0.4-1.5-1.3-2-2.2c0.5-1.5,0.7-3.1,0.5-4.7c-0.3-2.1-0.9-3.7-1.1-4.1l-0.9-2.1l-6.6,3.1l0.9,2
		c0,0,0.4,0.9,0.5,1.9c0.1,0.9-0.2,1.8-0.8,2.5s-1.6,1.2-2.6,1.2c-2.2,0.1-4.5,0-6.1-1.3c-0.6-0.5-1.2-1.6-1.3-2.7
		C184,32.3,183.5,28.4,192,25.1z M177.3,23.9l0.2-0.3c1.9-2.9,5.9-3.7,8.6-3.9c-7,3.6-10,8.8-9,15.8c0.1,0.9,0.3,1.7,0.6,2.5
		c-1.1-0.8-1.8-1.9-2.1-3.1C173.7,28.7,177.1,24.2,177.3,23.9z M177.1,62.7l-0.6-2l-2.1-0.5c-0.5-0.1-0.8-0.6-0.8-1.1
		c0-0.4,0.2-0.7,0.5-0.9l0.2-0.1c0.2-0.1,0.5-0.2,0.5-0.3l1.3-0.5l0.2-2.2c0.2-2.9,1-5.8,2.4-8.4c4.3,1.3,9.1,1,12.4-0.8
		c0.2,0,0.5,0,0.7,0c1.8,0,3.6-0.5,5.1-1.4c1.1,1.4,2.5,2.4,4.1,3.1c1,0.4,2.1,0.7,3.2,0.8c0.9,1.1,1.9,2,3,2.7
		c-1.7,1-2.8,2.8-2.8,4.9c0,3.2,2.6,5.7,5.7,5.7c3.2,0,5.7-2.6,5.7-5.7c0-1.3-0.4-2.5-1.2-3.4c1.4-0.1,2.8-0.4,4.2-0.9
		c0.3,1.2,0.5,2.3,0.6,3.5l0.2,2.5l2.4,0.7c0.5,0.1,0.8,0.6,0.8,1c0,0.6-0.5,1-1,1.1l-2.5,0.2l-0.7,2.4
		c-2.8,9.1-11.1,15.3-20.7,15.3C188.3,78.3,179.8,71.9,177.1,62.7z M222.6,85.2c0.7-0.4,1.4-0.9,2.3-1.2l0.2,1.9
		C224.3,85.6,223.4,85.4,222.6,85.2z M268.6,59.4c0,0-2.6,2.1-4.9,0.1c-0.5-0.5-0.7-0.9-0.5-1.5c0.2-1,1.2-2,2.3-2.3
		c1.8-0.5,3.4-1.5,4.7-2.6C270.5,55.2,270.3,57.7,268.6,59.4z"/>
</g>
<g>
	<path class="st1" d="M205.7,92c0.3,0.1,0.6,0.2,1,0.2h0.7c0.8-0.1,1.6-0.3,2.5-0.8c5.4-3.1,5-5.8,4.9-6.9c0-0.1,0-0.3,0-0.4
		s-0.1-0.2-0.3-0.4c-2.8,1.5-8.2,4.3-11.7,5.4c0.3,0.5,0.6,0.9,0.9,1.3C204.2,91.1,204.9,91.7,205.7,92z"/>
	<path class="st1" d="M178.1,86.5c0-0.2-0.1-0.5-0.1-0.8c-2.1,0.3-6.3,1.4-10.6,5.5l7.5,6c1.1-3.4,2.9-9.3,3.2-10.1L178.1,86.5z"/>
	<path class="st1" d="M184.7,91.5c0.9,0.6,1.7,0.9,2.5,0.9h0.7c0.3,0,0.7-0.1,1-0.3c1.4-0.6,2.4-1.9,3.1-3c-3.5-1.3-9-4.3-11.9-6
		c-0.2,0.2-0.3,0.4-0.3,0.5c0,0,0,0.1,0,0.3C179.6,85.1,179.2,88.1,184.7,91.5z"/>
	<path class="st1" d="M218.5,86.7c0.8,0.2,6.4,1.8,9.6,2.7l-1.2-9.4c-5.3,1.5-8.2,4.5-9.5,6.1c0.2,0.2,0.4,0.4,0.6,0.5L218.5,86.7z"
		/>
	<path class="st2" d="M216,89.7l-1.6,0.5c-0.9,1.1-1.4,1.8-3.5,2.7c-1.1,0.5-2.3,1.4-3.3,1.5l0.1,3h-20.2v-3.1
		c-1.1,0.1-2.3-0.4-3.4-1.1c-1.8-1-3.7-2.2-4.5-3.2c-1.6,3.1-3.2,11.2-3.2,11.2l42.5,0.5C218.9,101.4,216.3,90.8,216,89.7z"/>
	<g>
		<path class="st3" d="M252.5,80.4c-0.8,0.2-2.4,1.6-2.7,2.3c0.6,2,0.4,2.8-0.1,3.8l-1.9-0.9c0,0,0.4-1.1,0.3-2
			c-0.5,0.4-0.9,0.8-1.4,1l-0.2,0.1c-0.9,0.3-3.4,0.2-4.7-3.1l-11.9,0.5l0.5,4.8l16.2,0.7l0.3,0.2c2.9,1.9,5.1,2.4,6.5,1.3
			c1.9-1.3,2.4-4.9,2.6-6.4C254.5,81.1,253.4,80.2,252.5,80.4z"/>
		<path class="st3" d="M245.4,83.2c1.5-0.7,3.4-3.6,3.5-5.7c0-1.1-0.5-1.5-0.9-1.7s-0.6-0.1-0.9,0c-1.4,0.6-2.7,3.7-3.3,6
			C244.3,83.1,245,83.2,245.4,83.2z"/>
	</g>
	<g>
		<path class="st3" d="M169.9,58.8c0,1.7,1.1,3.2,2.8,3.6l0.8,0.2l0.2,0.8c3.1,10.9,13.1,18.4,24.3,18.4s20.9-7.3,24.2-18.1l0.3-0.9
			l1-0.1c1.9-0.1,3.4-1.7,3.4-3.7c0-1.6-1.1-3.1-2.6-3.5l-0.9-0.3l-0.1-1c-0.2-2.4-0.7-4.8-1.5-7.1c-1.9,1.1-4.1,1.8-6.4,2
			c-0.3,0-0.7,0-1,0c-3.7,0-6.6-1.5-8.3-4.5c-0.2,0-0.3,0-0.5,0c-1,0-2.1-0.2-3.2-0.6c-1.9-0.8-3.4-2.3-4.6-4.5
			c-1.6,1.6-3.8,2.5-6,2.6c-0.3,0-0.6,0-1,0c-0.1,0-0.3,0-0.4,0c-3.1,1.9-8.3,2.2-12.6,0.7c-0.3-0.1-0.6-0.3-1-0.4
			c-2.2,3.6-3.6,7.6-3.9,11.9l-0.1,0.8l-0.3,0.2v0.3c-0.2,0-0.4,0-0.7,0C170.6,56.3,169.9,57.5,169.9,58.8z"/>
		<path class="st4" d="M214,47.9c-2.6,0.2-5.1-0.6-6.4-2.2c0.4-0.1,8.1-12.6,3.4-5.2c-0.7,1-1.6,1.8-2.7,2.3
			c-1.4,0.6-3.5,1.2-5.4,0.4c-1.5-0.7-5.9-5.5-6.9-4.2c-1.1,1.3-2.7,2.1-4.3,2.1c-2.5,0.1-5.4,0-7.7-2c-1.1-0.9-1.9-2.6-2.1-4.3
			c-0.6-4.1,0.1-8.7,9.2-12.4c0,0-7.3,19.8-6.5,20.2c-1.7,0.1-3.5-0.2-5.3-0.8c-2.2-0.8-5.1-2.5-6.2-6.3c-2.2-7.9,2.2-13.6,2.2-13.7
			l0.1-0.1c4-6.2,13.6-5.1,13.7-5.1l2.4,0.3l-1.2-2.6c2.1,1.1,4.7,4,4.7,4l0.1-2.9c0-1.5-0.3-3.5-0.6-5.3c1.5,1.8,3.1,4.4,4.2,6.4
			l0.6,1.1l1.1-0.5c2.8-1.2,8.4-0.7,10.3-0.4c9.6,1.1,13.7,12,13.7,12.2c1.1,3.1,1.3,6.3,0.6,9.4C223.5,43.6,219.1,47.5,214,47.9z"
			/>
		<path class="st4" d="M170.3,34.4c0.1,0.5,0.3,1.1,0.4,1.6c0.8,2.6,2.6,4.8,5.1,6.4c-2.3,3.5-3.8,7.3-4.3,11.4
			c-2.7-0.2-7.2-1.3-8.3-6.1c-0.9-4-0.5-7.3,1.3-9.6C166.2,35.8,168.8,34.8,170.3,34.4z"/>
		<path class="st4" d="M221.8,46.3c2.6-2.1,4.5-5,5.4-8.4c0.4-1.6,0.6-3.2,0.6-4.8c1.4,1.1,3.2,2.9,4.3,5.5c1.3,3.4,1.3,6.7-0.1,9.2
			c-1.5,2.6-4.3,4.5-8.5,5.5C223.2,50.9,222.6,48.5,221.8,46.3z"/>
	</g>
	<g>
		<path class="st1" d="M271.3,45.8c0,0-2.7,5-6.8,6.2c-4.1,1.2-7,6.6-3.2,10c3.8,3.5,8.4,1.3,9.9-0.2
			C276.4,56.4,273.1,47.7,271.3,45.8z"/>
	</g>
	<path class="st2" d="M283.5,39.5c0,0,2.6,0,3.9,1.4c1.4,1.4,4.1,1.4,4.7-0.9c0.5-2.3-0.6-3.5-2.3-3.9
		C286.5,35.2,283.8,38.4,283.5,39.5z"/>
	<path class="st1" d="M289,53.3c0,0,2.2,1.4,2.5,3.3c0.4,1.9,2.7,3.4,4.4,1.8c1.7-1.6,1.4-3.3,0.3-4.5
		C293.9,51.4,289.9,52.6,289,53.3z"/>
	<path class="st1" d="M282.2,65.7c0,0,1.3,2.2,0.8,4.1s0.9,4.3,3.2,3.6c2.2-0.7,2.7-2.3,2.2-3.9C287.4,66.1,283.3,65.4,282.2,65.7z"
		/>
	<path class="st2" d="M296.8,68.2c0,0,1.6,2,1.4,3.9s1.5,4.1,3.6,3.1s2.3-2.7,1.6-4.2C302.1,67.9,297.9,67.8,296.8,68.2z"/>
	<path class="st2" d="M302.1,48c0,0,2.2,1.4,2.5,3.3c0.4,1.9,2.7,3.4,4.4,1.8c1.7-1.6,1.4-3.3,0.2-4.5
		C307.1,46.1,303.1,47.2,302.1,48z"/>
	<path class="st1" d="M310.3,63.9c0,0,1.8,1.8,1.7,3.8c-0.1,1.9,1.8,3.9,3.9,2.8c2-1.2,2.1-2.9,1.3-4.3
		C315.5,63.2,311.4,63.4,310.3,63.9z"/>
	<g>
		<path class="st5" d="M283.5,40.6c0.6,0,2.3,0.2,3.1,1c0.8,0.8,2,1.3,3.1,1.3c0.4,0,0.7,0,1.1-0.1c1.2-0.3,2.1-1.3,2.4-2.6
			c0.6-2.6-0.6-4.6-3.1-5.3c-4-1-7.2,2.6-7.7,4.2l-0.5,1.5L283.5,40.6L283.5,40.6z M289.5,37.1c1.3,0.3,1.8,1.1,1.4,2.6
			c-0.1,0.5-0.4,0.8-0.9,0.9c-0.6,0.2-1.5,0-1.9-0.5c-0.8-0.8-1.8-1.2-2.8-1.4C286.4,37.7,287.9,36.7,289.5,37.1z"/>
		<path class="st5" d="M297,53.1c-2.8-3-7.4-1.7-8.7-0.7l-1.3,1l1.3,0.9c0.5,0.3,1.8,1.4,2,2.6c0.3,1.5,1.4,2.8,2.8,3.2
			c0.4,0.1,0.7,0.2,1.1,0.2c0.9,0,1.7-0.3,2.4-1C298.6,57.4,298.8,55.1,297,53.1z M295.2,57.6c-0.4,0.4-0.8,0.5-1.2,0.3
			c-0.6-0.2-1.2-0.8-1.3-1.5c-0.2-1.1-0.9-2-1.5-2.7c1.3-0.3,3.1-0.3,4.2,1C296.3,55.7,296.2,56.6,295.2,57.6z"/>
		<path class="st5" d="M282,64.6l-1.6,0.3l0.8,1.4c0.3,0.5,1,2,0.7,3.2c-0.4,1.5,0.1,3.1,1.1,4.1c0.7,0.6,1.5,1,2.4,1
			c0.4,0,0.7-0.1,1.1-0.2c2.6-0.8,3.7-2.8,3-5.3C288.3,65.1,283.6,64.2,282,64.6z M285.8,72.2c-0.5,0.1-0.9,0.1-1.2-0.3
			c-0.5-0.5-0.7-1.3-0.5-1.9c0.3-1.1,0.1-2.2-0.2-3.1c1.3,0.3,2.9,1.1,3.4,2.8C287.7,71,287.2,71.8,285.8,72.2z"/>
		<path class="st5" d="M296.4,67.1l-1.5,0.5l1,1.2c0.4,0.5,1.3,1.9,1.2,3.1c-0.2,1.5,0.5,3.1,1.7,3.9c0.6,0.4,1.3,0.6,2,0.6
			c0.5,0,1-0.1,1.5-0.4c2.4-1.1,3.3-3.3,2.2-5.7C302.8,66.8,298,66.6,296.4,67.1z M301.4,74.2c-0.5,0.2-0.9,0.2-1.3-0.1
			c-0.5-0.4-0.9-1.2-0.8-1.9c0.1-1.1-0.2-2.2-0.6-3c1.3,0.1,3,0.7,3.7,2.3C303,72.7,302.7,73.5,301.4,74.2z"/>
		<path class="st5" d="M310.2,47.8c-2.8-3-7.4-1.7-8.7-0.7l-1.2,1l1.3,0.9c0.5,0.3,1.8,1.4,2.1,2.6c0.3,1.5,1.4,2.8,2.8,3.2
			c0.4,0.1,0.7,0.2,1.1,0.2c0.9,0,1.7-0.3,2.4-1C311.8,52,311.9,49.7,310.2,47.8z M308.3,52.2c-0.4,0.4-0.8,0.5-1.2,0.3
			c-0.6-0.2-1.2-0.8-1.3-1.5c-0.2-1.1-0.9-2-1.5-2.7c1.3-0.3,3.1-0.3,4.3,1C309.4,50.3,309.4,51.2,308.3,52.2z"/>
		<path class="st5" d="M318.1,65.6c-2-3.6-6.8-3.4-8.3-2.7l-1.4,0.7l1.1,1.1c0.4,0.4,1.4,1.8,1.4,3c-0.1,1.5,0.8,3,2,3.8
			c0.6,0.3,1.2,0.5,1.8,0.5c0.6,0,1.2-0.2,1.8-0.5C318.7,70.1,319.4,67.9,318.1,65.6z M315.3,69.5c-0.4,0.3-0.9,0.3-1.3,0
			c-0.6-0.3-1-1.1-0.9-1.8c0-1.1-0.4-2.2-0.8-3c1.3,0,3.1,0.5,3.9,2C316.8,67.9,316.6,68.8,315.3,69.5z"/>
		<path class="st5" d="M212.7,95.7c-1.2,0-2.2,1-2.2,2.2s1,2.2,2.2,2.2s2.2-1,2.2-2.2S213.9,95.7,212.7,95.7z"/>
		<path class="st5" d="M182.8,95.7c-1.2,0-2.2,1-2.2,2.2s1,2.2,2.2,2.2s2.2-1,2.2-2.2C184.9,96.7,184,95.7,182.8,95.7z"/>
		<path class="st5" d="M168.5,58.9c0,2.6,1.6,4.8,3.9,5.7c3.5,10.9,13.9,18.5,25.4,18.5s21.6-7.2,25.3-18c2.8-0.6,4.8-3.1,4.8-6
			c0-1.5-0.6-2.9-1.5-4c3.7-1.3,6.4-3.3,7.8-6.1c1.6-3.1,1.6-6.9,0-10.7c-1.8-4.4-5.5-6.6-6.8-7.3c-0.2-1-0.5-1.9-0.8-2.9
			c-0.2-0.5-4.6-12.3-15.8-13.5c-0.2,0-6.3-0.9-10.4,0.2c-2.3-6.8-10.1-9.3-10.1-9.3l0.6,2.4c0.2,0.9,0.7,3,1.1,4.9
			c-3.3-2.7-7.4-3.2-7.4-3.2l2.3,4.8c-3.6,0.1-10.2,0.9-13.7,6.2c-0.5,0.6-3.7,5-3.4,11.3c-1.7,0.5-4.9,1.7-7,4.7
			c-2.1,2.9-2.6,6.8-1.6,11.4c1.1,4.9,4.7,7,8.1,7.7C168.9,56.7,168.5,57.8,168.5,58.9z M222,62.5l-1,0.1l-0.3,0.9
			c-3.1,10.1-12.3,16.9-22.8,16.9c-10.6,0-20-7.1-22.9-17.2l-0.2-0.8l-0.8-0.2c-1.5-0.4-2.6-1.7-2.6-3.2c0-1.2,0.6-2.3,1.7-2.9
			c0.3-0.2,1-0.5,1-0.5l0.1-0.8c0.3-3.9,1.5-7.7,3.6-11c0.3,0.1,0.5,0.2,0.8,0.3c4.2,1.4,9.1,1.2,12-0.6c0.1,0,0.2,0,0.4,0
			c0.3,0,0.6,0,0.9,0c2.1-0.1,4.2-0.9,5.7-2.3c1.1,2,2.6,3.4,4.4,4.2c1,0.4,2.1,0.6,3.1,0.6c0.1,0,0.3,0,0.4,0
			c1.7,2.7,4.4,4.2,8,4.2c0.3,0,0.6,0,0.9,0c2.1-0.1,4.2-0.8,6-1.8c0.8,2.1,1.3,4.3,1.4,6.5l0.1,1l0.9,0.3c1.4,0.4,2.4,1.7,2.4,3.2
			C225.2,60.9,223.8,62.4,222,62.5z M227.4,38.8c0.3-1.4,0.5-2.8,0.5-4.2c1.3,1,2.9,2.5,3.8,4.8c1.3,3,1.3,6,0.1,8.3
			c-1.3,2.4-3.8,4.1-7.4,5.1c-0.3-2.2-0.8-4.3-1.7-6.3C225,44.6,226.7,41.9,227.4,38.8z M175.6,22.3l0.1-0.1
			c3.9-5.9,13.5-4.9,13.6-4.9l2.6,0.3l-1.6-3.3c2.4,1.4,5,4.7,5,4.7s-0.1-5.8-0.7-8.4c1.4,1.7,3.1,4.8,4.1,6.6l0.6,1.1l1.2-0.5
			c2.7-1.1,8.3-0.7,10.2-0.4c9.5,1,13.5,11.5,13.5,11.6c1.1,3,1.3,6,0.6,9c-1.2,5-5.5,8.7-10.6,9.1c-2.5,0.2-4.3-0.5-5.6-1.9
			c0.4-0.1,0.7-0.2,1-0.4c1.6-0.7,3-1.8,3.9-3.2c4.9-7.4-0.9-14.7-4.7-17.6l-1.7,2.3c0.4,0.3,8.7,6.7,4,13.7c-0.7,1-1.6,1.7-2.7,2.2
			c-1.4,0.6-3.5,1.2-5.3,0.4c-1.5-0.6-2.7-2-3.6-4.2c0.6-1.4,0.9-2.9,0.7-4.5c-0.2-2-0.9-3.4-1-3.5l-1.3,0.6l-1.3,0.6
			c0,0,0.5,1.1,0.7,2.6c0.2,1.6-0.3,3.1-1.3,4.2c-1.1,1.2-2.6,1.9-4.2,2c-2.5,0.1-5.4,0-7.6-1.9c-1.1-0.9-1.9-2.4-2.1-4.1
			c-0.5-3.9,0.1-8.3,9.1-11.8l-1-2.6c-11,4.3-11.5,10.5-10.9,14.8c0.3,2.4,1.5,4.5,3.1,5.9c0.6,0.5,1.2,0.9,1.9,1.2
			c-1.5,0-3.2-0.2-4.8-0.8c-2.2-0.8-5-2.4-6.1-6C171.2,27.9,175.5,22.4,175.6,22.3z M164.1,47.4c-0.8-3.8-0.4-6.9,1.1-9.2
			c1.5-2.1,3.7-3.1,5.1-3.5c0.1,0.5,0.2,0.9,0.4,1.4c0.7,2.5,2.3,4.6,4.5,6.1c-2,3.3-3.3,7-3.8,10.8C169,52.9,165.1,51.9,164.1,47.4
			z"/>
		<path class="st5" d="M210.2,52.2c-1.9,0-3.5,1.6-3.5,3.5s1.6,3.5,3.5,3.5s3.5-1.6,3.5-3.5C213.6,53.8,212.1,52.2,210.2,52.2z"/>
		<path class="st5" d="M189.2,55.9c0-1.9-1.6-3.5-3.5-3.5s-3.5,1.6-3.5,3.5s1.6,3.5,3.5,3.5S189.2,57.8,189.2,55.9z"/>
		<path class="st5" d="M197.9,59.6c2.1,0,3.8,1.7,3.8,3.8h0.9c0-2.6-2.1-4.7-4.7-4.7c-2.6,0-4.7,2.1-4.7,4.7h0.9
			C194.1,61.3,195.8,59.6,197.9,59.6z"/>
		<path class="st5" d="M197.9,74.3c-5.9,0-11.9-4.5-13.5-10.1l-0.9,0.3c1.6,5.9,8.1,10.8,14.4,10.8c6.4,0,12.5-4.4,14.1-10.2
			l-0.9-0.3C209.6,70.2,203.9,74.3,197.9,74.3z"/>
		<path class="st5" d="M271,43.4l-0.9,1.7c-0.7,1.2-3,4.7-5.9,5.5c-2.8,0.8-5.2,3.2-5.8,6c-0.4,1.9,0,3.8,1.1,5.3l-8.4,13.4
			c-0.4-0.9-1.1-1.7-2.1-2.2c-1.1-0.5-2.2-0.5-3.2,0c-2.3,1.1-3.7,4.6-4.2,6.4l-12,0.4l-0.4-2.7l-1.5,0.3c-5.7,1.1-9.1,3.8-11,5.7
			c-0.5-0.8-1.3-1.5-1.6-1.7l-0.7-0.5l-0.8,0.4c-5,2.6-11.3,5.4-12.6,5.4l0,0h-6.8l0,0c-1.3,0-7.6-2.8-12.6-5.4l-0.8-0.4l-0.7,0.5
			c-0.4,0.3-1.3,1.1-1.8,2.1c-2,0.1-7.5,1.1-12.8,6.7l-1.1,1.1l12.1,9.8c0,0,2.4-7.7,3.4-10.8c0.9,1,2.2,2.1,4.1,3.1
			c1.1,0.6,2.2,1,3.3,1.1v3.1H208v-3.1c1-0.1,2.1-0.5,3.2-1c2-1.1,3.4-2.2,4.3-3.3c0,0,3.4,11,3.6,11.4l2.7-0.9
			c0-0.1-3.7-11.8-3.7-11.8c0.1,0.1,10.8,2.9,11.2,3l2.1,0.5l-0.4-2.9l14.7,0.5c2.1,1.1,4.1,1.7,5.8,1.7c1.2,0,2.2-0.3,3.2-0.8
			c3.8-2.2,4-7.9,4-8.2v-0.5l-0.3-0.4c-0.5-0.6-1.1-1.2-1.6-1.7l9.3-15l0,0c2.8,0,5.2-1.4,6.3-2.6c5.8-6.1,2-15.7,0-17.9L271,43.4z
			 M177.7,87.7c-0.2,0.7-1.8,5.8-2.7,8.7l-6.4-5.2c3.7-3.4,7.3-4.4,9.1-4.7c0,0.3,0.1,0.5,0.1,0.7L177.7,87.7z M188.2,91.8h-0.6
			c-0.7,0-1.5-0.3-2.3-0.7c-5-2.7-4.7-5.1-4.5-6c0-0.1,0.2-0.5,0.3-0.6c2.6,1.3,7.6,3.8,10.9,4.8c-0.6,0.9-1.6,2-2.8,2.4
			C188.9,91.7,188.6,91.7,188.2,91.8z M205.1,94.9h-15v-0.5c1.4-0.5,3.4-1.6,4.9-4.7h5c0.4,0.7,1,1.6,1.8,2.5
			c1.2,1.3,2.4,1.9,3.3,2.2V94.9z M209.8,91.1c-0.8,0.4-1.6,0.7-2.3,0.7h-0.6c-0.3,0-0.6-0.1-0.9-0.2c-0.8-0.3-1.4-0.8-1.9-1.3
			c-0.3-0.3-0.6-0.7-0.8-1.1c3.2-1,8.2-3.5,10.8-4.8c0.1,0.1,0.3,0.5,0.3,0.6C214.4,85.9,214.8,88.3,209.8,91.1z M219.1,86.5
			l-0.5-0.1c-0.1-0.1-0.3-0.3-0.5-0.5c1.2-1.4,3.8-3.8,8.6-5.1l0.4,2.9l0.6,5.1C224.9,87.9,219.9,86.7,219.1,86.5z M247,75.7
			c0.2-0.1,0.4-0.1,0.8,0c0.4,0.2,0.9,0.5,0.8,1.5c-0.1,1.9-1.8,4.3-3.1,5c-0.3,0-1-0.1-1.4-1.3C244.7,79,245.9,76.3,247,75.7z
			 M253.1,88.6c-1.5,0.8-3.6,0.5-6.4-1.1l-0.3-0.2l-15.9-0.5l-0.5-3.5l-0.1-0.4l11.8-0.4c1.3,2.7,3.7,2.8,4.6,2.5l0.2-0.1
			c0.5-0.2,0.9-0.5,1.4-0.8c0.2,0.8-0.2,1.6-0.3,1.7l2.5,1.3c0.4-0.8,0.9-2.5,0.4-4.1c0.3-0.6,1-1.4,1.7-1.5c0.9-0.1,2,0.6,3.3,2
			C255.5,84.6,255,87.5,253.1,88.6z M254.3,78.9c-0.6-0.2-1.2-0.3-1.7-0.4l9.1-14.5c0.5,0.3,1,0.6,1.5,0.8L254.3,78.9z M270.3,60.8
			c-1,1.1-4.8,3.1-8,0.2c-1.4-1.3-1.4-2.7-1.2-3.7c0.4-1.8,2-3.4,3.9-4c2.9-0.8,5.1-3.2,6.4-4.9C272.6,51.3,273.9,57,270.3,60.8z"/>
	</g>
</g>
<g class="st6">
	<path class="st2" d="M4.6,224.9C6.5,216.3,8,209,9.2,203l5.7-0.1c1.4,6.2,3,13.3,4.8,21.3l-3.9,0.8l-1.2-5.7H9.8l-1.3,6.2
		L4.6,224.9z M14.4,215c-0.5-2.2-1.4-4.8-2.6-7.8c-0.9,2.5-1.7,5.2-2.3,7.9L14.4,215z"/>
	<path class="st2" d="M20.2,225.1c0.1-2.6,0.1-5.4,0.1-8.1c0-4.3-0.1-8.7-0.2-13.2c1.7-0.2,3.2-0.4,4.6-0.4c2.1,0,3.6,0.3,4.7,0.9
		c1.6,0.9,2.4,2.9,2.4,5.8v0.5c-0.1,3.2-0.8,5.2-2.2,6.1s-3,1.4-5,1.4c0,0.3,0,0.6,0,1c0,1.7,0.1,3.7,0.3,5.9L20.2,225.1z
		 M24.1,207.2l0.1,7.4c1.9-0.1,3-0.8,3.3-2c0.2-0.6,0.2-1.1,0.2-1.7c0-0.7-0.1-1.4-0.3-2.1c-0.3-1.1-1.1-1.6-2.3-1.6
		C24.8,207.1,24.4,207.2,24.1,207.2z"/>
	<path class="st2" d="M40.3,203.2c4.2,0,6.4,3.6,6.4,10.9c0,7.3-2.3,10.9-6.8,10.9c-4.5,0-6.8-3.8-6.8-11.3
		C33,206.7,35.4,203.2,40.3,203.2z M37.3,214.5c0,0.3,0,0.5,0,0.8c0,3.8,0.9,5.7,2.7,5.7c1.9,0,2.8-2.2,2.8-6.5s-0.9-6.5-2.6-6.5
		C38.3,208.1,37.4,210.2,37.3,214.5z"/>
	<path class="st2" d="M47.8,217.1l4.5-0.3c-0.1,0.6-0.1,1.2-0.1,1.7c0,2.3,0.6,3.4,1.7,3.4H54c1.4,0,2.1-0.8,2.1-2.2v-0.1
		c-0.1-1.5-1.4-3-3.9-4.5c-2.5-1.4-3.7-3.7-3.7-7c0-0.1,0-0.2,0-0.3c0.1-3.4,2-5.1,5.7-5.2h0.1c3.4,0,5.1,2.2,5.1,6.5
		c0,0.3,0,0.7,0,1.1l-3.9,0.2c0-0.5,0.1-0.9,0.1-1.3c0-1.8-0.4-2.7-1.3-2.7c-1.1,0-1.6,0.5-1.7,1.6c0,0.2,0,0.3,0,0.5
		c0,0.9,0.3,1.7,0.8,2.5c0.6,0.9,1.7,1.7,3.2,2.5c1.5,0.7,2.5,1.8,3.1,3.1c0.4,0.9,0.6,1.9,0.6,3c0,0.4,0,0.8-0.1,1.2
		c-0.2,1.5-0.9,2.8-1.9,3.8c-1.1,1-2.5,1.5-4.3,1.6c-0.1,0-0.2,0-0.4,0c-1.6,0-3-0.6-4.1-1.8c-1-1.1-1.6-3.2-1.6-6.2
		C47.8,217.8,47.8,217.5,47.8,217.1z"/>
	<path class="st2" d="M61.5,207.7v-4c1.5,0,2.9,0.1,4.4,0.1c2.3,0,4.5,0,6.6-0.1l0.1,4.2h-3.8c0,7.2,0.1,12.8,0.2,17l-4.3,0.2
		c0.2-7.2,0.4-13,0.5-17.5L61.5,207.7z"/>
	<path class="st2" d="M73.1,224.9c1.9-8.6,3.4-15.9,4.6-21.9l5.7-0.1c1.4,6.2,3,13.3,4.8,21.3l-3.9,0.8l-1.2-5.7h-4.7l-1.3,6.2
		L73.1,224.9z M82.9,215c-0.5-2.2-1.4-4.8-2.6-7.8c-0.9,2.5-1.7,5.2-2.3,7.9L82.9,215z"/>
	<path class="st2" d="M88.7,225.1c0.1-3.4,0.2-6.8,0.2-10.1c0-3.8-0.1-7.4-0.2-11l4.4-0.2l4.1,11.4c0-3.9-0.2-7.9-0.3-12l4.7-0.1
		c-0.5,6.2-0.7,12.4-0.7,18.7c0,0.8,0,1.7,0,2.5l-4.1,0l-4.4-12.2c0.1,4.5,0.3,8.7,0.4,12.5L88.7,225.1z"/>
	<path class="st2" d="M102.9,224.9c0-3.4,0-6.9,0-10.5c0-3.6,0-7.3,0-11.1c1.2-0.1,2.2-0.2,3.2-0.2c2.7,0,4.7,0.5,6,1.6
		c1.8,1.5,2.7,4.2,2.8,8.3v1.1c0,3.4-0.3,5.9-1,7.4c-0.7,1.6-2.1,2.7-4,3.2c-1.1,0.3-2.4,0.5-3.7,0.5
		C105.1,225.2,104,225.1,102.9,224.9z M106.7,207.7c-0.2,3.3-0.3,6.5-0.3,9.6c0,1.2,0,2.3,0,3.4c0.4,0.1,0.7,0.1,1,0.1
		c0.9,0,1.6-0.3,2.2-0.9c0.8-0.8,1.2-2.7,1.2-5.6v-0.1c0-2.9-0.4-4.8-1.2-5.7c-0.6-0.7-1.3-1-2.2-1
		C107.2,207.6,107,207.6,106.7,207.7z"/>
	<path class="st2" d="M123.1,203.2c4.2,0,6.4,3.6,6.4,10.9c0,7.3-2.3,10.9-6.8,10.9c-4.5,0-6.8-3.8-6.8-11.3
		C115.8,206.7,118.2,203.2,123.1,203.2z M120,214.5c0,0.3,0,0.5,0,0.8c0,3.8,0.9,5.7,2.7,5.7c1.9,0,2.8-2.2,2.8-6.5
		s-0.9-6.5-2.6-6.5C121.1,208.1,120.2,210.2,120,214.5z"/>
	<path class="st2" d="M135.2,224.9c1.9-8.6,3.4-15.9,4.6-21.9l5.7-0.1c1.4,6.2,3,13.3,4.8,21.3l-3.9,0.8l-1.2-5.7h-4.7l-1.3,6.2
		L135.2,224.9z M145,215c-0.5-2.2-1.4-4.8-2.6-7.8c-0.9,2.5-1.7,5.2-2.3,7.9L145,215z"/>
	<path class="st2" d="M165.9,203.4v4.3l-6-0.2v5.7l5.4-0.1l0.1,4.1h-4.8v7.5l-4.2-0.2c0.1-2.8,0.2-5.7,0.2-8.6c0-4-0.1-8-0.3-12
		C158.6,203.7,161.8,203.6,165.9,203.4z"/>
	<path class="st2" d="M179.7,203.4v14.9c0,4.6-2.1,6.9-6.3,6.9H173c-3.5-0.4-5.3-2.3-5.5-5.8c0-6.9-0.1-12.3-0.2-16.3h4
		c-0.1,2.3-0.2,5-0.2,8c0,2.2,0,4.5,0.1,7.1c0,1.9,0.7,2.8,2,2.8c0,0,0,0,0,0c1.3,0,2-1.2,2-3.6l-0.1-13.9L179.7,203.4z"/>
	<path class="st2" d="M181.1,207.7v-4c1.5,0,2.9,0.1,4.4,0.1c2.3,0,4.5,0,6.6-0.1l0.1,4.2h-3.8c0,7.2,0.1,12.8,0.2,17l-4.3,0.2
		c0.2-7.2,0.4-13,0.5-17.5L181.1,207.7z"/>
	<path class="st2" d="M206.1,203.4v14.9c0,4.6-2.1,6.9-6.3,6.9h-0.3c-3.5-0.4-5.3-2.3-5.5-5.8c0-6.9-0.1-12.3-0.2-16.3h4
		c-0.1,2.3-0.2,5-0.2,8c0,2.2,0,4.5,0.1,7.1c0,1.9,0.7,2.8,2,2.8c0,0,0,0,0,0c1.3,0,2-1.2,2-3.6l-0.1-13.9L206.1,203.4z"/>
	<path class="st2" d="M207.6,225.3c0.1-2.9,0.1-5.8,0.1-8.7c0-4.5-0.1-9-0.2-13.6c1.6-0.2,3-0.2,4.2-0.2c3.4,0,5.6,0.6,6.6,1.9
		c0.9,1.2,1.3,2.5,1.3,3.9c0,0.6-0.1,1.3-0.3,2c-0.6,2.2-1.8,3.6-3.7,4.2c1.3,0.2,2.3,0.9,3,2.1c0.6,1.2,1,4.2,1,9v0.7l-4.6,0.1
		c0-1.3,0.1-2.4,0.1-3.4c0-3.1-0.2-4.9-0.7-5.6c-0.6-0.8-1.2-1.1-2-1.1c-0.2,0-0.3,0-0.5,0c0.1,3.1,0.2,6,0.4,8.7L207.6,225.3z
		 M211.5,206.6l0.1,6.5c1.9-0.1,3.1-0.7,3.6-1.9c0.3-0.6,0.4-1.2,0.4-1.8c0-0.5-0.1-1-0.3-1.5c-0.4-0.9-1.3-1.3-2.7-1.3
		C212.3,206.5,211.9,206.5,211.5,206.6z"/>
	<path class="st2" d="M228,203.2c4.2,0,6.4,3.6,6.4,10.9c0,7.3-2.3,10.9-6.8,10.9c-4.5,0-6.8-3.8-6.8-11.3
		C220.7,206.7,223.1,203.2,228,203.2z M225,214.5c0,0.3,0,0.5,0,0.8c0,3.8,0.9,5.7,2.7,5.7c1.9,0,2.8-2.2,2.8-6.5s-0.9-6.5-2.6-6.5
		C226,208.1,225.1,210.2,225,214.5z"/>
</g>
<g class="st6">
	<path class="st1" d="M2.9,161.2l15.5-1c-0.2,2.2-0.3,4.1-0.3,5.8c0,7.9,2,11.8,5.9,11.8h0.2c4.8-0.1,7.1-2.7,7.1-7.6v-0.5
		c-0.2-5.2-4.7-10.4-13.5-15.4c-8.6-4.9-12.9-12.9-12.9-24c0-0.3,0-0.7,0.1-1c0.2-11.7,6.8-17.6,19.7-17.8h0.4
		c11.6,0,17.4,7.4,17.4,22.2c0,1.2,0,2.4-0.1,3.7l-13.6,0.8c0.1-1.6,0.2-3,0.2-4.3c0-6.2-1.5-9.3-4.5-9.3c-3.6,0-5.6,1.9-6,5.6
		c0,0.5-0.1,1-0.1,1.6c0,3.1,0.9,6,2.8,8.6c2.1,3.1,5.7,5.9,10.9,8.5c5.2,2.6,8.7,6.1,10.8,10.6c1.5,3.2,2.2,6.7,2.2,10.3
		c0,1.4-0.1,2.8-0.3,4.3c-0.8,5.2-3,9.6-6.7,13s-8.5,5.3-14.7,5.6c-0.4,0-0.8,0.1-1.2,0.1c-5.6,0-10.2-2-14-6.1
		c-3.6-3.9-5.4-11-5.4-21.4C2.8,163.8,2.8,162.5,2.9,161.2z"/>
	<path class="st1" d="M64.2,186.3l-13,1.2c0-25.5-0.4-49.4-1.2-71.7l14.8-1.2C64.4,138.1,64.2,162,64.2,186.3z"/>
	<path class="st1" d="M87.9,113.1L100,167l8.9-49.9l23.7,0.3c-0.4,11.3-0.6,22.7-0.6,34.1c0,12.8,0.3,25.8,0.8,38.9l-15.1,1
		c0-13.8-0.2-30.7-0.5-50.6l-8.5,45.7l-16.1,1.1l-10.4-49.3L82,188.2l-12.7,0.9c0.2-11.4,0.4-22.7,0.4-34c0-14-0.2-27.9-0.6-41.5
		L87.9,113.1z"/>
	<path class="st1" d="M161.7,113.6c14.6,0,21.9,12.5,21.9,37.5c0,25-7.8,37.5-23.5,37.5c-15.6,0-23.5-13-23.5-38.9
		C136.7,125.6,145,113.6,161.7,113.6z M151.3,152.5c0,0.9-0.1,1.8-0.1,2.6c0,13.1,3.1,19.6,9.2,19.6c6.5,0,9.7-7.4,9.7-22.2
		c0-14.8-3-22.2-9.1-22.2C155,130.2,151.7,137.6,151.3,152.5z"/>
	<path class="st1" d="M187.6,188.8c0.4-11.9,0.6-23.4,0.6-34.7c0-13-0.3-25.5-0.8-37.7l15.3-0.7l14,39.2
		c-0.1-13.5-0.5-27.2-1.1-41.3l16.1-0.2c-1.6,21.3-2.4,42.7-2.4,64.4c0,2.9,0,5.8,0.1,8.7l-14.1,0.2l-15-41.9
		c0.5,15.5,0.9,29.8,1.2,43.1L187.6,188.8z"/>
</g>
<g class="st6">
	<path class="st1" d="M5.8,99c0.1-11.7,0.1-23.7,0.1-36.1c0-12.4,0-25.2-0.1-38.2c4-0.5,7.7-0.7,11-0.7c9.4,0,16.3,1.9,20.7,5.6
		c6,5.1,9.2,14.6,9.5,28.5v3.7c0,11.9-1.1,20.3-3.4,25.4c-2.5,5.6-7.2,9.3-13.9,11.1c-3.9,1.1-8.2,1.6-12.8,1.6
		C13.4,99.9,9.7,99.6,5.8,99z M18.7,39.5c-0.6,11.4-0.9,22.4-0.9,33.1c0,4,0,8,0.1,11.9c1.2,0.3,2.4,0.4,3.5,0.4
		c3.1,0,5.6-1.1,7.7-3.2c2.8-2.8,4.3-9.2,4.3-19.1v-0.2c0-10-1.4-16.5-4.2-19.7c-2.1-2.4-4.6-3.5-7.5-3.5
		C20.8,39.2,19.8,39.3,18.7,39.5z"/>
	<path class="st1" d="M75.2,24.3c14.6,0,21.9,12.5,21.9,37.5c0,25-7.8,37.5-23.5,37.5c-15.6,0-23.5-13-23.5-38.9
		C50.2,36.3,58.5,24.3,75.2,24.3z M64.8,63.1c0,0.9-0.1,1.8-0.1,2.6c0,13.1,3.1,19.6,9.2,19.6c6.5,0,9.7-7.4,9.7-22.2
		c0-14.8-3-22.2-9.1-22.2C68.5,40.9,65.3,48.3,64.8,63.1z"/>
	<path class="st1" d="M101.1,99.5c0.4-11.9,0.6-23.4,0.6-34.7c0-13-0.3-25.5-0.8-37.7l15.3-0.7l14,39.2c-0.1-13.5-0.5-27.2-1.1-41.3
		l16.1-0.2c-1.6,21.3-2.4,42.7-2.4,64.4c0,2.9,0,5.8,0.1,8.7l-14.1,0.2l-15-41.9c0.5,15.5,0.9,29.8,1.2,43.1L101.1,99.5z"/>
</g>
</svg>
